<svg width="273" height="1108" viewBox="0 0 273 1108" fill="none" xmlns="http://www.w3.org/2000/svg">
<path d="M170.602 3.88806C169.402 6.02148 167.935 7.88806 167.535 7.88806C166.202 7.88806 160.069 20.0214 159.135 24.8214C158.602 27.2213 157.535 29.488 156.869 29.8881C156.202 30.4214 155.669 32.0214 155.669 33.488C155.669 35.8881 153.002 42.688 148.869 50.8214C147.269 53.8881 147.402 59.088 149.002 62.8214C150.069 65.3547 149.402 68.2881 145.135 78.4214C139.535 92.0214 139.669 92.0214 137.002 76.8214C135.669 69.3547 135.002 68.1547 133.535 69.3547C131.135 71.3547 131.135 80.4214 133.669 88.8214C136.469 98.1547 136.335 104.155 133.269 116.555C131.802 122.421 130.202 129.888 129.669 133.221C128.069 144.155 127.135 145.088 126.202 136.555C125.669 132.155 125.269 125.088 125.135 120.821C125.002 111.621 122.735 111.088 119.802 119.355C117.669 125.488 119.402 144.155 123.135 154.955C125.135 160.955 125.135 163.221 123.135 185.621C121.935 198.955 121.002 215.355 121.002 222.155C121.002 228.821 120.469 234.821 119.669 235.221C118.869 235.621 118.335 234.555 118.335 232.688C118.335 230.821 115.669 224.421 112.469 218.288C106.869 207.488 103.802 197.355 103.535 188.821C103.402 180.821 101.135 189.755 100.202 201.755C99.0019 216.421 101.002 223.888 109.135 235.888C119.135 250.688 119.135 250.155 117.135 297.621C116.069 320.555 114.869 343.755 114.469 349.221L113.535 359.221L112.469 351.888C108.869 327.221 104.602 300.555 103.002 292.555C100.602 281.355 100.469 272.555 102.469 256.688C103.935 245.088 103.269 235.888 101.135 235.888C99.6685 235.888 97.4019 241.621 95.9352 248.421C94.8685 253.621 94.8685 253.621 91.4019 240.555C88.2019 228.955 88.0685 226.955 89.8018 225.088C91.9352 222.688 92.3352 215.088 90.3352 213.888C89.6685 213.488 89.0019 211.888 89.0019 210.555C89.0019 209.221 88.3352 207.888 87.6685 207.621C86.8685 207.355 84.7352 202.955 82.8685 197.888C78.0685 184.555 76.4685 181.221 75.0019 181.221C74.3352 181.221 72.4685 179.621 71.0019 177.621C64.7352 169.888 63.8018 178.821 68.8685 195.888C70.6019 201.355 72.3352 206.421 72.7352 207.221C73.2685 207.888 73.6685 208.821 73.8018 209.221C73.8018 209.621 75.0019 213.755 76.4685 218.421C78.6019 225.488 79.6685 227.221 82.7352 228.421C85.2685 229.355 86.7352 231.221 87.6685 234.555C92.0685 251.355 95.8018 267.488 97.6685 277.488C98.8685 283.755 100.335 290.821 101.002 293.088C102.735 299.355 100.602 296.955 95.9352 287.621C93.5352 282.555 88.7352 276.288 84.2019 271.888L76.6019 264.555L77.5352 269.088C79.2685 278.288 85.1352 288.421 94.2019 297.888C99.8018 303.621 103.669 308.821 104.069 311.221C105.935 319.888 109.002 341.621 108.602 342.021C108.335 342.288 106.602 340.288 104.869 337.488C102.069 333.088 82.6019 318.555 79.5352 318.555C77.4018 318.555 78.4685 321.888 84.0685 332.555C88.4685 341.088 91.4019 344.555 98.2019 350.021C111.669 360.821 112.069 362.021 116.869 401.221C119.269 419.888 122.335 443.755 123.669 454.155C127.002 478.155 127.002 479.221 123.002 471.488C117.802 461.488 111.802 454.821 104.469 451.221C95.2685 446.555 89.1352 447.088 95.1352 451.888C96.2019 452.955 99.5352 457.755 102.335 462.688C106.069 468.955 110.202 473.621 116.335 478.421C121.135 482.155 126.069 487.488 127.402 490.288C130.202 495.755 139.402 550.021 137.802 551.621C137.535 551.888 134.469 546.688 130.869 540.288C124.735 529.088 124.469 528.021 124.202 516.555C123.935 509.888 123.002 501.755 121.935 498.288C119.669 490.821 113.269 479.621 111.935 480.421C110.735 481.088 112.335 506.155 113.669 510.555C115.135 515.355 112.602 512.821 103.802 500.688C95.1352 488.688 91.6685 481.088 91.6685 473.755C91.6685 463.088 85.1352 443.888 80.0685 439.755C78.0685 438.021 77.9352 438.288 78.8685 441.888C80.4685 449.355 83.1352 470.555 82.4685 470.555C82.0685 470.421 78.2019 465.755 74.0685 460.021C67.1352 450.555 66.2018 448.421 63.8018 436.555C62.3352 429.488 60.7352 423.221 60.3352 422.821C58.6018 421.088 57.0018 426.155 57.2685 432.288C57.5352 435.755 57.4018 438.555 57.0018 438.555C56.6018 438.555 53.5352 435.888 50.3352 432.555C45.1352 427.355 44.4685 425.888 44.7352 421.221C45.0018 416.955 44.4685 415.355 41.6685 412.955C39.8018 411.355 38.3352 409.488 38.3352 408.821C38.3352 408.155 35.9352 404.955 33.0018 401.755C30.0685 398.555 27.6685 395.221 27.6685 394.288C27.5352 392.021 23.0018 386.555 21.1352 386.555C20.3352 386.555 18.7352 385.088 17.5352 383.221C16.3352 381.355 14.2018 379.888 12.8685 379.888C11.5352 379.888 8.86851 378.288 7.00185 376.421C0.868512 370.421 -2.19815 374.555 1.80185 383.488C3.13518 386.288 4.46851 389.488 4.86851 390.555C6.46851 394.688 24.0685 417.221 25.8018 417.221C26.8685 417.221 27.6685 418.021 27.6685 419.088C27.6685 422.021 35.5352 427.888 39.4018 427.888C42.2018 427.888 45.2685 430.288 52.6018 438.155C57.9352 443.755 62.0685 448.555 61.8018 448.821C61.5352 449.088 59.8018 448.688 57.8018 447.888C42.2018 442.021 51.4018 453.621 67.6685 460.555C73.4018 462.821 75.5352 465.088 84.8685 478.288C90.8685 486.555 95.6685 493.621 95.6685 493.888C95.6685 494.155 92.3352 492.155 88.3352 489.355C81.6685 484.688 63.1352 477.355 61.6685 478.821C60.4685 480.021 68.3352 493.755 71.6685 496.155C73.5352 497.488 80.6019 499.755 87.4019 501.221C101.935 504.288 106.202 507.088 115.535 519.755C121.935 528.288 130.335 541.888 130.335 543.488C130.335 543.888 127.135 541.355 123.402 537.621C116.069 530.821 104.602 523.355 102.469 524.155C101.802 524.288 104.069 529.488 107.535 535.488C112.202 544.021 115.402 547.755 121.002 552.021C129.402 558.288 136.735 564.955 138.335 567.888C139.002 569.088 141.002 576.555 142.735 584.555C144.602 592.688 146.469 600.421 147.002 601.888L147.935 604.555L145.669 601.888C144.469 600.421 141.935 596.288 140.202 592.821C127.802 568.688 105.535 563.488 93.1352 582.021C89.1352 588.021 88.8685 589.221 89.2685 597.755L89.6685 607.088L85.5352 608.155C79.2685 609.755 69.5352 619.088 66.8685 625.888C64.0685 633.488 65.1352 640.821 70.3352 650.021L74.2019 656.955L70.3352 658.555C64.8685 660.821 53.4018 673.488 50.0685 680.821C47.6685 686.288 47.4018 688.688 48.0685 700.421L48.8685 713.755L42.3352 720.688C38.7352 724.555 34.7352 729.888 33.4018 732.421C31.2685 737.088 31.2685 737.888 34.2018 752.288C37.1352 766.555 51.6685 809.355 57.2685 820.421C58.7352 823.355 63.2685 830.821 67.1352 836.955C71.1352 843.088 76.2019 851.755 78.4685 856.288C83.4019 866.155 90.3352 876.021 104.735 893.755C110.602 900.955 117.402 910.688 119.669 915.355C125.669 927.621 129.802 946.155 133.002 975.221C134.469 989.088 136.869 1008.29 138.335 1017.89C140.869 1034.69 142.202 1048.95 145.002 1086.29C145.669 1096.02 146.869 1105.09 147.669 1106.29C148.869 1108.02 149.002 1107.09 148.469 1102.55C148.069 1099.22 147.402 1092.29 147.002 1087.22C143.935 1046.82 142.602 1033.89 139.802 1014.55C138.335 1004.69 136.469 989.888 135.669 981.888C132.069 945.488 128.735 929.755 121.669 915.221C117.269 906.155 112.869 900.021 96.4685 879.888C92.0685 874.555 85.6685 864.688 81.9352 858.021C78.3352 851.355 72.6019 841.355 69.0019 835.888C65.5352 830.421 60.8685 822.288 58.7352 817.888C53.4018 807.221 41.5352 774.555 38.8685 763.088C37.6685 758.021 35.8018 750.555 34.8685 746.555C33.1352 739.488 33.1352 738.955 36.4685 732.288C40.2018 724.421 50.6018 714.555 54.8685 714.555C58.7352 714.555 64.6019 718.288 71.4018 725.221C76.8685 730.688 109.002 770.021 109.002 771.355C109.002 771.621 107.535 771.888 105.669 771.888C101.269 771.888 97.6685 777.355 99.0019 782.155C99.4019 784.288 101.269 787.755 103.135 790.155C112.202 802.155 100.069 798.421 83.9352 784.288C78.3352 779.355 68.7352 771.621 62.6018 767.221C55.8018 762.421 50.2018 757.221 48.2018 753.888C46.4685 750.955 45.0018 749.488 45.0018 750.688C45.0018 754.821 51.2685 762.021 60.3352 768.288C65.5352 771.755 74.6019 778.955 80.7352 784.288C86.8685 789.621 93.8018 794.955 96.0685 796.155C104.335 800.555 114.869 798.155 118.069 791.221C121.669 783.355 121.002 782.155 97.8018 753.221C71.5352 720.421 63.9352 713.221 55.2685 713.221C52.3352 713.221 51.6685 712.421 50.8685 708.288C50.3352 705.488 49.8018 699.355 49.8018 694.555C49.8018 683.888 54.2018 674.821 63.8018 665.888C76.6018 653.888 81.5352 657.088 108.202 694.155C138.202 736.021 140.069 739.088 132.735 734.021C131.135 732.821 127.802 731.888 125.402 731.888C116.602 731.888 114.602 743.221 121.002 755.888C123.935 761.488 126.602 762.421 132.069 759.755C134.869 758.421 134.869 758.421 132.469 760.421C125.002 766.421 113.269 759.621 99.4019 741.355C91.9352 731.488 58.4685 696.688 57.4018 697.755C57.0018 698.155 64.7352 706.688 74.6019 716.821C84.4685 726.955 94.4685 737.888 97.0019 741.221C103.535 749.888 113.135 759.755 117.269 762.021C119.269 763.088 123.669 763.888 127.135 763.888C132.335 763.888 133.935 763.221 137.802 759.355C141.535 755.621 142.335 753.888 142.335 749.088C142.335 741.088 136.869 730.021 124.869 713.888C119.402 706.555 111.135 695.088 106.602 688.555C93.6685 669.621 87.0019 661.888 81.8018 659.355C74.2019 655.755 67.6685 643.755 67.6685 633.355C67.6685 625.355 72.7352 617.621 81.4018 612.688C93.0019 605.888 98.2019 608.688 122.602 635.221C142.202 656.421 148.869 665.355 151.669 673.621C153.402 679.221 152.469 682.155 150.469 677.088C148.069 670.688 137.002 662.555 130.869 662.555C121.935 662.555 119.135 673.621 125.002 685.221C130.335 695.755 139.402 697.221 147.535 688.955C153.269 683.088 152.735 686.688 146.869 693.088C141.535 699.088 134.869 701.888 129.135 700.555C124.069 699.488 117.402 692.821 109.402 680.955C105.935 675.755 97.4019 665.355 90.6019 658.021C81.2685 648.021 77.8018 643.355 76.7352 639.088C75.8018 635.888 74.7352 633.621 74.2019 634.021C73.0019 634.688 74.6019 640.688 77.0019 645.221C77.9352 646.955 83.2685 653.221 89.0019 659.355C94.7352 665.355 103.669 676.421 109.002 683.888C114.335 691.355 120.469 698.555 122.735 700.021C131.935 705.621 145.135 701.355 151.269 690.821C154.069 686.021 154.602 683.888 154.069 677.221C153.535 670.155 153.802 669.221 156.469 668.021C160.335 666.288 160.602 667.221 162.469 695.888C163.269 708.688 164.602 719.755 165.269 720.555C166.069 721.355 166.335 718.555 165.802 712.555C165.402 707.355 164.335 694.288 163.535 683.488C162.335 668.555 162.202 663.488 163.402 662.288C164.602 661.088 165.002 661.888 165.002 665.621C165.002 668.421 167.135 681.221 169.669 694.155C172.202 707.088 174.335 719.088 174.335 720.821C174.335 722.421 175.002 723.888 175.669 723.888C177.535 723.888 177.535 724.688 172.469 698.421C166.335 666.555 166.069 665.221 166.869 665.221C167.269 665.221 168.469 667.221 169.535 669.488C170.469 671.888 175.269 678.555 179.935 684.288C189.002 695.088 189.269 695.755 192.869 717.088C194.335 726.021 193.535 728.688 184.469 747.221C174.735 766.688 163.269 797.888 167.269 793.888C168.069 793.088 170.602 786.555 173.135 779.221C175.669 771.888 181.669 757.621 186.602 747.488C192.202 736.021 195.669 727.355 195.669 724.555C195.669 718.688 191.002 695.621 189.002 692.021C188.202 690.421 184.069 685.355 179.802 680.688C171.135 671.088 167.669 662.688 167.669 650.688C167.535 646.555 166.602 640.821 165.535 637.888C158.735 619.755 158.469 610.421 164.202 597.755C168.202 589.088 172.469 586.421 177.802 589.355C182.469 591.755 184.335 596.155 186.202 608.288C189.002 627.488 198.069 644.288 212.202 656.288C226.069 668.155 230.735 673.488 239.935 688.555C249.935 705.088 255.002 717.355 257.802 731.621C261.669 752.021 259.935 767.888 249.002 811.888C245.402 826.155 242.202 840.288 241.669 843.355C241.135 846.421 239.135 850.821 236.869 853.621C232.469 858.955 221.002 865.221 215.402 865.221C213.402 865.221 211.669 865.755 211.669 866.555C211.669 869.621 224.602 866.288 231.669 861.221C236.735 857.621 237.002 857.755 235.402 863.488C232.735 873.088 236.602 918.155 243.802 959.488C250.869 1001.49 267.135 1075.89 271.535 1086.55C274.069 1092.82 273.002 1086.42 269.002 1070.42C246.202 980.155 231.269 874.955 239.002 859.888C240.202 857.621 242.202 850.155 243.669 843.221C245.135 836.155 249.002 819.488 252.202 806.155C260.602 771.488 261.402 767.488 261.402 751.888C261.535 735.888 259.802 726.555 253.935 711.221C248.069 695.755 231.669 670.555 222.469 662.821C199.402 643.355 189.802 627.088 187.002 602.021C185.802 592.155 181.135 586.555 173.935 586.555C167.135 586.555 161.802 594.155 158.869 607.888L157.402 615.221L155.935 609.755C155.002 606.821 153.802 598.555 153.002 591.621C150.735 569.755 153.802 560.688 169.269 543.221C174.335 537.355 179.402 530.821 180.602 528.821C183.002 524.021 187.669 505.888 187.669 501.355L187.535 497.888L184.869 501.221C177.402 510.555 160.202 536.155 156.869 543.221L153.002 551.221V544.555C153.002 527.888 157.535 491.088 163.135 461.888C167.802 437.488 171.535 430.421 184.735 420.155C202.202 406.555 207.669 399.088 209.802 385.488C211.002 377.888 209.002 378.288 202.469 386.821C199.669 390.688 194.202 396.821 190.335 400.555C186.469 404.155 181.002 410.155 177.935 413.888C175.002 417.488 173.002 419.355 173.402 417.888C173.802 416.421 176.335 407.755 178.869 398.555C183.669 381.888 191.535 357.888 196.869 343.621C199.802 336.021 199.935 335.888 210.735 330.688C222.735 325.088 230.202 318.155 234.469 308.688C237.269 302.421 237.802 297.221 235.402 297.221C234.602 297.221 230.469 300.421 226.335 304.155C222.202 308.021 215.802 313.355 212.069 316.155L205.269 320.955L208.602 312.155C210.469 307.221 216.069 292.155 221.135 278.555C229.535 255.488 230.335 253.888 233.935 253.088C240.069 251.888 243.669 249.355 243.802 246.155C243.935 244.555 244.202 240.955 244.335 238.155C244.469 235.355 245.269 232.421 246.202 231.488C247.002 230.688 247.669 227.888 247.669 225.221C247.669 222.555 248.202 219.888 248.869 219.088C249.535 218.421 250.335 216.021 250.735 213.888C251.135 211.621 251.935 207.488 252.602 204.555C254.735 195.888 254.069 187.355 251.402 186.821C249.935 186.555 248.469 187.621 247.535 189.755C246.602 191.621 245.402 193.221 244.869 193.221C243.402 193.221 238.335 203.088 238.335 205.888C238.335 206.955 237.135 208.955 235.669 210.155C234.202 211.488 233.002 213.888 233.002 215.621C233.002 217.355 231.935 221.221 230.469 224.288C229.135 227.355 227.535 231.888 227.002 234.155C226.602 236.555 225.269 238.555 224.335 238.555C220.069 238.555 220.869 243.755 226.335 249.888C228.602 252.421 228.469 253.221 222.335 269.221C202.202 322.955 190.202 355.221 187.002 364.821C185.135 370.955 183.269 375.888 183.135 375.888C182.869 375.888 182.735 371.888 182.602 366.821C182.602 360.955 181.269 354.021 179.002 346.555C176.202 338.021 175.535 333.755 176.069 328.955C177.002 321.488 175.402 320.688 172.069 326.821C168.469 333.621 169.002 347.355 173.535 362.555C179.002 381.088 179.402 388.955 175.269 403.355C169.669 423.088 163.535 448.688 160.335 465.755C158.735 474.688 157.002 480.955 156.602 479.888C156.335 478.821 154.602 470.688 152.869 461.888C149.669 445.355 148.869 432.021 150.735 426.821C151.402 425.088 151.269 423.888 150.602 423.888C147.935 423.888 143.269 443.088 142.602 455.888C142.069 468.155 142.202 468.955 147.669 483.221L153.269 497.888L152.202 519.221C150.735 545.621 150.602 592.688 152.069 602.555C153.269 611.355 151.669 609.355 147.935 597.221C144.069 585.221 142.735 577.621 139.669 549.888C138.202 536.688 135.802 519.088 134.335 510.688C129.669 484.288 126.202 459.221 125.935 449.755C125.802 441.488 126.335 439.355 131.402 428.421C136.335 417.755 137.002 415.221 137.002 406.821C137.002 401.488 136.469 397.221 135.802 397.221C134.469 397.221 125.269 417.221 124.069 422.688C123.669 424.821 123.002 426.288 122.602 425.888C122.202 425.488 120.869 416.821 119.535 406.555C117.002 385.355 117.535 380.821 123.535 372.688C130.602 363.221 134.602 355.755 136.469 348.688C138.602 340.821 138.869 329.221 137.002 329.221C135.402 329.221 127.402 341.755 121.935 352.688C117.802 361.221 115.135 363.755 116.202 358.155C116.602 356.555 117.269 345.755 117.669 334.021C118.602 310.288 118.869 309.355 130.202 294.955C134.735 289.221 137.135 284.688 138.202 279.888C139.935 271.621 140.069 261.221 138.469 261.221C135.535 261.221 125.002 275.088 122.469 282.288L119.669 289.888L120.469 270.555C121.802 232.288 123.802 208.688 125.802 205.621C126.735 204.021 131.002 198.955 135.135 194.288C142.069 186.555 154.202 164.688 152.602 163.088C151.802 162.288 135.002 179.488 130.069 186.021C124.735 193.088 124.735 192.955 125.669 180.555C126.469 168.555 129.669 142.821 131.135 135.221C131.669 132.555 135.669 127.488 143.535 119.888C153.535 110.021 155.535 107.221 158.869 98.8214C160.869 93.488 162.335 88.8214 162.069 88.5547C161.402 87.8881 141.402 109.488 138.069 114.421C135.135 118.688 135.002 116.555 137.802 106.155C140.602 95.3547 143.935 89.2214 148.869 85.488C153.269 82.2881 158.069 74.5547 155.669 74.5547C154.869 74.5547 152.602 75.6213 150.735 76.8214C147.269 79.088 147.135 79.088 148.202 76.5547C148.735 75.088 149.802 72.2881 150.602 70.4214C151.535 67.6213 153.002 66.688 156.869 66.0214C163.269 65.088 164.735 63.2213 165.535 55.7546C166.469 45.8881 170.335 30.8214 172.469 29.088C173.535 28.2881 174.335 26.0214 174.335 24.0214C174.335 22.0214 175.135 19.3547 176.202 17.8881C178.335 14.688 178.735 4.02148 176.735 1.62146C174.602 -1.04529 173.135 -0.511963 170.602 3.88806ZM177.002 3.75476C177.002 6.55481 175.269 9.22144 173.535 9.22144C171.669 9.22144 171.002 5.08813 172.602 3.48804C173.935 2.15479 177.002 2.42139 177.002 3.75476ZM170.735 12.1548C171.269 13.7548 171.269 15.3547 170.869 15.7546C170.069 16.688 167.669 13.0881 167.669 10.8214C167.669 8.02148 169.935 9.08813 170.735 12.1548ZM175.669 13.8881C175.669 14.9547 175.135 15.8881 174.335 15.8881C173.669 15.8881 173.002 14.9547 173.002 13.8881C173.002 12.8214 173.669 11.8881 174.335 11.8881C175.135 11.8881 175.669 12.8214 175.669 13.8881ZM167.669 18.1547C167.669 19.8881 167.269 19.8881 165.669 18.5547C164.602 17.6213 164.069 16.4214 164.469 15.7546C165.535 14.0214 167.669 15.6213 167.669 18.1547ZM173.002 19.2213C173.002 20.2881 172.469 21.2213 171.669 21.2213C171.002 21.2213 170.335 20.2881 170.335 19.2213C170.335 18.1547 171.002 17.2213 171.669 17.2213C172.469 17.2213 173.002 18.1547 173.002 19.2213ZM165.002 23.488C165.002 26.4214 164.735 26.8214 163.669 25.2213C161.935 22.5547 161.935 19.8881 163.669 19.8881C164.469 19.8881 165.002 21.488 165.002 23.488ZM171.402 25.6213C171.669 26.9547 171.002 27.8881 169.802 27.8881C168.469 27.8881 167.669 26.688 167.669 25.088C167.669 21.8881 170.735 22.2881 171.402 25.6213ZM162.335 28.0214C162.335 29.488 161.802 30.2881 161.002 29.8881C160.335 29.488 159.669 28.1547 159.669 27.088C159.669 26.0214 160.335 25.2213 161.002 25.2213C161.802 25.2213 162.335 26.4214 162.335 28.0214ZM169.002 32.0214C169.002 32.688 168.069 33.2213 167.002 33.2213C165.802 33.2213 165.002 32.0214 165.002 30.4214C165.002 28.0214 165.269 27.8881 167.002 29.2213C168.069 30.1547 169.002 31.3547 169.002 32.0214ZM160.735 34.4214C161.135 35.488 160.602 36.0214 159.535 35.6213C158.602 35.3547 157.535 34.2881 157.269 33.3547C156.869 32.2881 157.402 31.7546 158.469 32.1547C159.402 32.4214 160.469 33.488 160.735 34.4214ZM167.669 37.3547C167.669 38.0214 166.735 38.5547 165.669 38.5547C163.669 38.5547 163.002 36.9547 164.469 35.488C165.535 34.4214 167.669 35.6213 167.669 37.3547ZM159.669 42.0214C159.669 45.6213 157.669 46.2881 156.469 43.2213C155.535 40.688 156.869 36.9547 158.469 38.0214C159.135 38.4214 159.669 40.1547 159.669 42.0214ZM165.002 42.4214C165.002 43.8881 164.469 45.488 163.669 45.8881C162.869 46.4214 162.335 45.2213 162.335 43.3547C162.335 41.488 163.002 39.8881 163.669 39.8881C164.469 39.8881 165.002 41.088 165.002 42.4214ZM156.735 47.6213C157.002 48.5547 156.335 49.2213 155.135 49.2213C153.935 49.2213 153.002 48.2881 153.002 47.088C153.002 44.8214 155.935 45.2213 156.735 47.6213ZM163.802 49.8881C163.802 50.688 162.469 51.488 160.735 51.6213C158.202 52.1547 158.069 51.8881 159.535 50.0214C161.535 47.7546 163.935 47.6213 163.802 49.8881ZM155.669 53.2213C156.469 54.688 156.735 56.5547 156.202 57.3547C155.535 58.4214 151.669 53.088 151.669 51.088C151.669 49.488 154.469 50.9547 155.669 53.2213ZM152.735 59.3547C153.002 63.088 153.002 63.088 151.002 60.688C148.602 57.488 148.335 54.1547 150.735 54.8214C151.535 55.2213 152.469 57.2213 152.735 59.3547ZM163.669 55.8881C163.669 57.488 159.935 59.2213 158.869 58.1547C157.669 56.9547 159.669 54.5547 161.802 54.5547C162.869 54.5547 163.669 55.2213 163.669 55.8881ZM162.335 61.088C162.335 62.4214 159.135 63.8881 156.602 63.8881C155.669 63.8881 156.202 62.9547 157.535 61.8881C160.469 59.6213 162.335 59.3547 162.335 61.088ZM136.202 83.8881L137.002 91.2214L135.135 86.5547C132.869 81.2213 132.335 73.3547 134.202 75.2213C135.002 76.0214 135.802 79.8881 136.202 83.8881ZM150.335 81.8881C148.602 83.7547 146.602 85.2214 145.935 85.2214C145.135 85.2214 145.935 83.7547 147.669 81.8881C149.402 80.0214 151.402 78.5547 152.069 78.5547C152.869 78.5547 152.069 80.0214 150.335 81.8881ZM153.935 104.821C151.135 110.155 139.002 122.555 136.335 122.555C135.935 122.555 136.469 120.821 137.669 118.555C139.935 114.155 155.669 96.8214 156.602 97.7547C156.869 98.0214 155.669 101.221 153.935 104.821ZM124.202 135.221C124.869 146.955 124.735 150.555 123.669 148.821C120.869 144.421 120.202 115.755 122.869 118.688C123.135 118.955 123.669 126.421 124.202 135.221ZM144.469 176.821C142.602 180.421 140.069 184.821 138.735 186.688C135.402 191.621 124.869 202.821 124.202 202.288C122.869 200.821 131.269 187.221 138.469 179.355C143.002 174.555 146.869 170.555 147.135 170.555C147.402 170.555 146.202 173.355 144.469 176.821ZM71.1352 182.288C69.9352 183.355 67.6685 180.955 67.6685 178.821C67.8018 176.821 67.9352 176.821 69.6685 179.088C70.7352 180.555 71.4018 181.888 71.1352 182.288ZM74.6019 185.488C73.6685 186.421 73.0019 186.555 73.0019 185.755C73.0019 183.888 74.6019 182.288 75.5352 183.221C75.8018 183.621 75.4018 184.688 74.6019 185.488ZM70.3352 185.888C71.6685 187.488 71.6685 187.888 69.8018 187.888C68.6019 187.888 67.6685 186.955 67.6685 185.888C67.6685 184.821 67.9352 183.888 68.2018 183.888C68.4685 183.888 69.4018 184.821 70.3352 185.888ZM77.0019 189.221C77.0019 189.888 76.4685 190.555 75.6685 190.555C75.0019 190.555 74.3352 189.888 74.3352 189.221C74.3352 188.421 75.0019 187.888 75.6685 187.888C76.4685 187.888 77.0019 188.421 77.0019 189.221ZM251.669 191.088C251.669 192.155 251.135 193.488 250.335 193.888C249.669 194.288 249.002 193.488 249.002 192.021C249.002 190.421 249.669 189.221 250.335 189.221C251.135 189.221 251.669 190.021 251.669 191.088ZM73.0019 191.888C73.0019 192.555 72.4685 193.221 71.6685 193.221C71.0019 193.221 70.3352 192.555 70.3352 191.888C70.3352 191.088 71.0019 190.555 71.6685 190.555C72.4685 190.555 73.0019 191.088 73.0019 191.888ZM79.6685 193.088C79.6685 193.755 78.7352 194.555 77.6685 195.088C75.6685 195.755 75.0019 194.421 76.6019 192.821C77.8018 191.488 79.6685 191.621 79.6685 193.088ZM73.0019 195.888C73.0019 196.555 72.7352 197.221 72.4685 197.221C72.0685 197.221 71.4018 196.555 71.0019 195.888C70.6019 195.088 70.8685 194.555 71.5352 194.555C72.3352 194.555 73.0019 195.088 73.0019 195.888ZM81.0019 197.221C81.0019 197.888 80.4685 198.555 79.6685 198.555C79.0019 198.555 78.3352 197.888 78.3352 197.221C78.3352 196.421 79.0019 195.888 79.6685 195.888C80.4685 195.888 81.0019 196.421 81.0019 197.221ZM247.669 198.021C247.669 199.088 247.135 199.621 246.335 199.221C245.669 198.821 245.002 197.888 245.002 197.088C245.002 196.421 245.669 195.888 246.335 195.888C247.135 195.888 247.669 196.821 247.669 198.021ZM74.3352 199.888C74.3352 200.555 73.8018 201.221 73.0019 201.221C72.3352 201.221 71.6685 200.555 71.6685 199.888C71.6685 199.088 72.3352 198.555 73.0019 198.555C73.8018 198.555 74.3352 199.088 74.3352 199.888ZM82.3352 201.088C82.3352 202.688 79.6685 204.421 78.7352 203.488C77.8018 202.555 79.5352 199.888 81.1352 199.888C81.8018 199.888 82.3352 200.421 82.3352 201.088ZM245.535 202.021C246.069 203.355 245.669 203.888 244.735 203.621C242.735 202.955 241.669 199.888 243.402 199.888C244.069 199.888 245.135 200.821 245.535 202.021ZM111.535 220.555C115.002 227.088 119.002 242.155 117.802 243.621C117.135 244.288 106.202 227.888 104.335 223.355C103.135 220.688 102.335 214.688 102.335 209.621L102.469 200.555L104.869 206.555C106.202 209.888 109.135 216.155 111.535 220.555ZM76.6019 206.021C75.4018 207.221 72.8685 205.221 73.8018 203.621C74.3352 202.821 75.1352 202.821 76.0685 203.755C76.8685 204.555 77.1352 205.488 76.6019 206.021ZM251.669 203.088C251.669 204.555 249.135 205.088 248.335 203.888C247.935 203.221 248.469 202.555 249.535 202.555C250.735 202.555 251.669 202.821 251.669 203.088ZM243.535 207.355C243.935 209.488 243.669 209.621 241.802 208.021C239.269 205.888 239.002 203.488 241.402 204.155C242.202 204.555 243.269 205.888 243.535 207.355ZM83.6685 207.088C83.6685 208.155 83.1352 209.355 82.4685 209.888C80.8685 210.821 79.2685 208.288 80.3352 206.555C81.5352 204.555 83.6685 204.955 83.6685 207.088ZM249.002 207.888C249.002 208.555 248.735 209.221 248.469 209.221C248.069 209.221 247.402 208.555 247.002 207.888C246.602 207.088 246.869 206.555 247.535 206.555C248.335 206.555 249.002 207.088 249.002 207.888ZM78.3352 210.555C78.3352 211.221 78.0685 211.888 77.8018 211.888C77.4018 211.888 76.7352 211.221 76.3352 210.555C75.9352 209.755 76.2019 209.221 76.8685 209.221C77.6685 209.221 78.3352 209.755 78.3352 210.555ZM87.6685 210.288C87.6685 211.755 84.7352 214.555 83.4019 214.555C82.7352 214.555 82.8685 213.355 83.6685 211.888C85.1352 209.221 87.6685 208.155 87.6685 210.288ZM242.069 211.621C242.869 214.021 240.069 213.488 239.135 211.088C238.602 209.755 239.002 209.221 239.935 209.488C240.735 209.755 241.802 210.821 242.069 211.621ZM249.002 211.888C249.002 212.555 248.069 213.221 247.002 213.221C245.935 213.221 245.002 212.555 245.002 211.888C245.002 211.088 245.935 210.555 247.002 210.555C248.069 210.555 249.002 211.088 249.002 211.888ZM80.6019 216.688C79.4018 217.888 76.8685 215.888 77.8018 214.288C78.3352 213.488 79.1352 213.488 80.0685 214.421C80.8685 215.221 81.1352 216.155 80.6019 216.688ZM239.402 216.955C239.802 219.088 239.269 219.621 237.802 219.088C235.269 218.155 234.869 212.688 237.402 213.488C238.202 213.888 239.135 215.355 239.402 216.955ZM89.0019 216.421C89.0019 218.421 86.6019 220.555 85.5352 219.488C84.6019 218.555 86.4685 214.555 87.8018 214.555C88.4685 214.555 89.0019 215.355 89.0019 216.421ZM247.669 216.955C247.669 218.821 246.202 219.755 244.202 218.955C241.402 217.888 241.935 215.888 245.002 215.888C246.469 215.888 247.669 216.421 247.669 216.955ZM81.6685 219.888C82.0685 220.555 81.8018 221.221 81.1352 221.221C80.3352 221.221 79.6685 220.555 79.6685 219.888C79.6685 219.088 79.9352 218.555 80.2019 218.555C80.6019 218.555 81.2685 219.088 81.6685 219.888ZM238.335 221.888C239.269 223.088 239.669 224.288 239.269 224.688C238.069 225.888 232.869 222.555 233.669 221.088C234.869 219.355 236.469 219.621 238.335 221.888ZM245.669 224.021C244.869 225.221 241.002 224.155 241.002 222.688C241.002 222.155 241.402 221.221 241.935 220.821C243.002 219.621 246.469 222.555 245.669 224.021ZM89.6685 222.555C89.2685 223.221 88.2019 223.888 87.5352 223.888C86.7352 223.888 86.6019 223.221 87.0019 222.555C87.4019 221.755 88.4685 221.221 89.1352 221.221C89.9352 221.221 90.0685 221.755 89.6685 222.555ZM85.0019 225.221C85.0019 225.888 84.2019 226.555 83.1352 226.555C82.0685 226.555 80.7352 225.888 80.3352 225.221C79.9352 224.421 80.7352 223.888 82.2019 223.888C83.8018 223.888 85.0019 224.421 85.0019 225.221ZM235.669 227.221C237.802 229.755 236.069 232.555 233.535 230.421C231.535 228.688 231.002 225.221 232.869 225.221C233.535 225.221 234.735 226.155 235.669 227.221ZM245.002 228.555C245.002 230.688 243.802 231.088 240.469 229.755C237.802 228.688 239.002 226.555 242.469 226.555C243.802 226.555 245.002 227.488 245.002 228.555ZM234.335 237.755C234.202 240.555 234.202 240.555 232.335 238.021C231.269 236.555 230.335 234.155 230.335 232.688C230.469 229.888 230.469 229.888 232.335 232.421C233.402 233.888 234.335 236.288 234.335 237.755ZM242.335 233.888C242.335 234.955 241.802 235.888 241.135 235.888C240.469 235.888 239.002 236.288 237.802 236.688C236.469 237.221 235.669 236.821 235.669 235.488C235.669 233.488 237.535 232.155 240.735 232.021C241.535 231.888 242.335 232.821 242.335 233.888ZM230.869 240.155C231.269 241.888 231.669 243.755 231.669 244.555C231.535 246.555 227.669 240.955 227.669 238.955C227.669 236.021 229.935 236.955 230.869 240.155ZM242.335 240.555C242.335 242.555 236.469 245.755 234.069 244.955C233.535 244.688 233.935 243.221 235.002 241.488C237.402 238.155 242.335 237.488 242.335 240.555ZM228.069 245.221C228.469 246.688 228.469 247.888 228.069 247.888C226.735 247.888 223.802 243.355 223.669 241.355C223.669 238.688 227.135 241.888 228.069 245.221ZM100.202 258.555C99.4019 265.488 99.2685 265.621 98.0685 261.888C97.0019 257.888 97.6685 248.421 99.4019 243.221C100.869 239.088 101.402 249.755 100.202 258.555ZM241.002 247.755C241.002 249.221 232.869 252.155 231.802 251.088C230.602 250.021 235.802 246.555 238.602 246.555C239.935 246.555 241.002 247.088 241.002 247.755ZM137.802 268.821C137.535 270.955 136.735 274.955 136.335 277.888C135.269 284.021 131.002 291.621 124.202 299.221C121.002 302.821 119.669 303.755 120.202 301.888C120.469 300.421 121.535 295.621 122.335 291.221C123.269 286.821 125.135 280.821 126.602 277.888C129.402 272.155 135.402 265.221 137.402 265.221C138.069 265.221 138.202 266.821 137.802 268.821ZM87.8018 278.821C93.0019 285.488 99.0019 296.955 97.9352 298.155C97.5352 298.421 94.6019 295.621 91.4019 292.021C85.6685 285.621 78.6019 271.888 81.0019 271.888C81.6685 271.888 84.7352 275.088 87.8018 278.821ZM234.069 304.155C231.935 310.421 225.669 319.355 220.602 322.955C215.802 326.555 201.002 333.488 201.002 332.155C201.002 329.488 209.402 320.155 216.202 315.221C220.735 312.021 226.469 307.221 228.869 304.688C234.602 298.688 235.935 298.688 234.069 304.155ZM93.1352 329.221C95.8018 330.555 99.5352 333.621 101.402 335.755C104.469 339.488 110.335 352.688 110.335 356.021C110.335 356.688 105.802 353.621 100.335 349.088C92.3352 342.421 89.5352 339.221 86.3352 332.421C81.5352 322.155 81.4018 321.621 85.4019 324.421C87.0019 325.621 90.4685 327.755 93.1352 329.221ZM174.335 334.955C174.335 337.488 175.535 342.955 177.135 347.355C179.935 355.221 182.335 377.488 180.202 375.488C179.669 374.955 177.402 368.555 175.402 361.488C171.669 348.421 170.335 330.555 173.002 330.555C173.802 330.555 174.335 332.555 174.335 334.955ZM133.002 352.821C131.535 356.421 127.402 363.355 123.935 368.555C120.602 373.621 117.535 378.155 117.402 378.421C117.135 378.688 116.602 378.688 116.202 378.155C115.002 376.955 118.335 364.021 121.402 357.888C122.869 354.955 126.469 348.288 129.535 343.221L135.002 333.888L135.402 340.155C135.669 344.421 134.869 348.555 133.002 352.821ZM7.00185 379.088C8.06851 380.821 8.73518 383.221 8.20185 384.421C7.40185 386.555 7.13518 386.555 4.86851 384.421C2.20185 382.021 1.40185 375.888 3.66851 375.888C4.33518 375.888 5.80185 377.355 7.00185 379.088ZM14.3352 382.421C14.3352 383.088 13.4018 384.288 12.3352 385.221C10.7352 386.555 10.3352 386.555 10.3352 384.955C10.3352 383.888 10.7352 382.555 11.2685 382.155C12.4685 380.821 14.3352 380.955 14.3352 382.421ZM206.469 391.621C204.602 398.555 198.735 406.288 190.869 412.555C187.269 415.488 181.402 420.155 177.935 422.955L171.402 428.288L174.335 422.421C176.069 419.221 183.002 410.955 189.802 404.155C196.735 397.355 203.402 389.888 204.602 387.755C207.535 382.821 208.335 384.555 206.469 391.621ZM15.8018 389.621C14.7352 390.688 14.3352 390.555 14.3352 389.088C14.3352 387.888 14.7352 386.555 15.2685 386.021C15.8018 385.488 16.4685 385.755 16.7352 386.555C17.1352 387.488 16.6018 388.821 15.8018 389.621ZM13.0018 389.088C13.0018 390.555 7.80185 392.421 6.73518 391.488C6.33518 391.088 6.46851 390.155 7.00185 389.355C8.06851 387.621 13.0018 387.355 13.0018 389.088ZM22.3352 390.421C22.3352 392.021 18.8685 394.688 17.9352 393.755C16.7352 392.421 18.4685 389.221 20.4685 389.221C21.5352 389.221 22.3352 389.755 22.3352 390.421ZM15.6685 393.088C15.6685 394.421 11.6685 396.288 10.7352 395.355C10.3352 394.955 10.4685 394.155 11.0018 393.355C12.0685 391.621 15.6685 391.355 15.6685 393.088ZM23.1352 396.955C21.2685 398.821 21.0018 398.821 21.0018 397.088C21.0018 394.421 24.0685 391.221 24.8685 393.355C25.1352 394.155 24.3352 395.755 23.1352 396.955ZM17.0018 398.555C14.4685 400.288 13.0018 400.288 13.0018 398.555C13.0018 397.755 14.3352 397.221 16.0685 397.221C18.4685 397.221 18.6018 397.488 17.0018 398.555ZM27.9352 402.821C26.7352 404.021 25.9352 404.021 24.8685 402.955C23.9352 402.021 23.6685 400.288 24.2018 399.088C25.0018 396.955 25.2685 396.955 27.2685 398.955C29.0018 400.688 29.2685 401.488 27.9352 402.821ZM21.0018 402.555C18.3352 404.288 15.6685 404.288 15.6685 402.555C15.6685 401.755 17.2685 401.221 19.4018 401.221C22.2018 401.221 22.6018 401.488 21.0018 402.555ZM32.2018 406.955C31.8018 408.155 30.8685 409.221 30.2018 409.221C28.7352 409.221 28.6018 404.688 29.9352 403.488C31.4018 401.888 33.1352 404.555 32.2018 406.955ZM135.135 413.621C134.202 418.021 124.869 437.488 124.069 436.688C123.002 435.621 126.602 420.688 130.069 412.021C133.135 404.155 133.535 403.755 134.602 406.688C135.269 408.421 135.535 411.488 135.135 413.621ZM26.4685 407.221C26.4685 407.888 24.8685 408.688 23.0018 408.955C20.6018 409.221 19.6685 408.821 19.6685 407.221C19.6685 405.621 20.6018 405.221 23.0018 405.488C24.8685 405.755 26.4685 406.421 26.4685 407.221ZM34.4685 410.955C33.4018 412.021 33.0018 411.888 33.0018 410.421C33.0018 409.221 33.4018 407.888 33.9352 407.355C34.4685 406.821 35.1352 407.088 35.4018 407.888C35.8018 408.821 35.2685 410.155 34.4685 410.955ZM30.3352 411.888C31.4018 412.555 31.9352 413.488 31.4018 413.888C29.9352 415.355 25.6685 415.621 24.0685 414.288C20.4685 411.355 26.0685 409.221 30.3352 411.888ZM38.3352 415.355C38.3352 417.221 37.8018 418.421 37.0018 417.888C36.3352 417.488 35.6685 415.888 35.6685 414.421C35.6685 413.088 36.3352 411.888 37.0018 411.888C37.8018 411.888 38.3352 413.488 38.3352 415.355ZM41.9352 420.821C41.5352 422.155 41.2685 421.355 41.2685 419.221C41.2685 416.955 41.5352 416.021 41.9352 416.821C42.2018 417.755 42.2018 419.621 41.9352 420.821ZM34.3352 418.555C34.3352 419.221 33.1352 419.888 31.6685 419.888C30.2018 419.888 29.0018 419.221 29.0018 418.555C29.0018 417.755 30.2018 417.221 31.6685 417.221C33.1352 417.221 34.3352 417.755 34.3352 418.555ZM40.3352 424.021C41.0018 424.821 40.7352 425.221 39.4018 425.221C36.2018 425.221 33.0018 423.755 33.0018 422.288C33.0018 420.955 38.2018 422.155 40.3352 424.021ZM61.6685 436.021C62.8685 444.288 61.6685 446.021 59.8018 438.955C58.0685 432.688 57.9352 429.221 59.5352 429.221C60.2018 429.221 61.1352 432.288 61.6685 436.021ZM154.335 479.221C157.135 497.221 155.269 497.755 149.002 480.821C145.002 470.288 144.335 466.955 144.335 457.221C144.469 438.688 146.069 438.288 149.802 455.888C151.669 464.288 153.669 474.821 154.335 479.221ZM60.0685 451.088C64.0685 452.688 70.6019 458.555 68.4685 458.555C66.6019 458.555 57.4018 453.355 55.8018 451.355C53.6685 448.688 54.4685 448.688 60.0685 451.088ZM87.0019 458.688C87.9352 462.688 89.1352 469.221 89.6685 473.221C90.3352 479.888 90.3352 480.288 88.4685 478.021C86.3352 475.488 84.3352 466.421 83.2685 455.488C82.4685 447.221 84.4685 448.955 87.0019 458.688ZM103.535 452.421C109.135 455.355 118.202 466.021 121.935 474.021C123.802 478.155 125.002 481.621 124.735 481.888C123.535 483.088 107.269 467.088 104.069 461.488C102.202 458.021 99.6685 454.155 98.6019 452.821C96.0685 450.021 98.3352 449.755 103.535 452.421ZM80.3352 487.355C88.6019 491.355 99.4019 499.355 98.0685 500.555C96.8685 501.755 77.4018 496.821 73.2685 494.288C69.5352 492.021 65.0018 485.221 65.0018 481.888C65.0018 480.555 70.4685 482.421 80.3352 487.355ZM119.669 498.421C121.535 504.555 122.335 510.155 122.069 516.021L121.669 524.555L118.469 518.555C115.802 513.755 115.002 510.021 114.602 500.021C113.935 485.221 115.535 484.688 119.669 498.421ZM183.135 514.421C180.202 525.755 177.269 531.088 167.669 541.888C163.135 546.955 158.469 552.821 157.269 554.821C156.069 556.955 154.602 558.555 154.069 558.555C152.735 558.555 157.802 544.421 161.269 538.688C166.335 530.288 184.202 505.355 184.735 505.888C185.002 506.155 184.335 510.021 183.135 514.421ZM122.335 539.488C129.669 546.288 137.135 557.488 135.402 559.355C134.469 560.155 125.669 553.755 117.269 546.021C113.402 542.555 106.335 531.088 106.335 528.555C106.335 526.821 115.135 532.821 122.335 539.488ZM122.202 575.088C127.402 577.888 133.002 584.555 139.002 595.355C141.802 600.421 147.002 608.955 150.602 614.288C159.002 626.688 165.002 639.355 165.002 644.555V648.555L162.469 644.555C153.802 630.155 139.669 629.488 139.669 643.488C139.669 646.555 139.269 649.221 138.735 649.088C136.869 648.821 105.802 614.688 100.469 607.088C97.6685 603.088 95.0019 600.021 94.7352 600.421C94.3352 600.821 95.0019 602.688 96.2019 604.421C99.0019 608.821 98.8685 609.355 95.4019 608.021C92.2019 606.821 90.7352 602.955 90.4685 594.688C90.3352 589.221 97.0019 578.021 102.202 575.221C106.735 572.688 117.535 572.688 122.202 575.088ZM151.669 636.555C156.469 639.088 162.069 646.288 163.135 651.355C163.669 654.421 163.135 655.888 160.069 658.821C158.069 660.821 154.735 662.688 152.869 663.221C149.935 663.888 149.002 663.221 145.802 658.555C143.669 655.355 141.935 650.288 141.402 646.688C140.735 641.221 141.135 639.755 143.535 637.355C146.869 634.021 146.735 634.021 151.669 636.555ZM136.869 666.555C143.669 669.888 149.002 676.421 149.002 681.221C149.002 689.355 135.135 695.355 129.935 689.488C124.069 683.088 121.935 670.688 125.935 666.288C128.735 663.221 130.602 663.221 136.869 666.555ZM158.202 664.421C156.202 666.155 151.669 667.755 151.669 666.688C151.669 666.021 152.735 665.088 154.069 664.821C157.269 664.021 158.869 663.755 158.202 664.421ZM130.335 735.221C135.135 737.755 139.669 744.021 139.669 748.288C139.669 752.821 132.469 758.821 127.802 758.288C123.935 757.888 120.469 752.155 119.002 743.621C118.202 739.755 118.602 738.288 120.869 736.021C124.202 732.688 125.269 732.555 130.335 735.221ZM110.869 774.688C115.269 776.821 118.869 785.355 116.869 789.621C116.069 791.355 114.335 793.488 112.869 794.421C110.469 795.755 109.802 795.488 107.269 792.421C100.602 784.021 99.0019 777.221 103.402 774.688C106.335 772.955 106.869 772.955 110.869 774.688Z" fill="white"/>
</svg>
